HIERARCHY
ROOT Hips
{
	OFFSET 0.053599 88.859886 3.107447
	CHANNELS 6 Xposition Yposition Zposition Zrotation Yrotation Xrotation 
	JOINT Spine
	{
		OFFSET -0.000000 8.814246 -2.080107
		CHANNELS 3 Zrotation Yrotation Xrotation
		JOINT Spine1
		{
			OFFSET 0.000000 8.844141 0.000000
			CHANNELS 3 Zrotation Yrotation Xrotation
			JOINT Spine2
			{
				OFFSET -0.000000 11.682268 0.000000
				CHANNELS 3 Zrotation Yrotation Xrotation
				JOINT Spine3
				{
					OFFSET 0.000000 11.746700 0.000000
					CHANNELS 3 Zrotation Yrotation Xrotation
					JOINT Neck
					{
						OFFSET -0.000000 17.658264 -0.000000
						CHANNELS 3 Zrotation Yrotation Xrotation
						JOINT Neck1
						{
							OFFSET -0.000000 5.101515 -0.000000
							CHANNELS 3 Zrotation Yrotation Xrotation
							JOINT Head
							{
								OFFSET 0.000000 5.101515 0.000000
								CHANNELS 3 Zrotation Yrotation Xrotation
								JOINT HeadEnd
								{
									OFFSET 0.000000 11.655085 0.000000
									CHANNELS 3 Zrotation Yrotation Xrotation
									End Site
									{
										OFFSET 0.000000 0.000000 0.000000
									}
								}
							}
						}
					}
					JOINT RightShoulder
					{
						OFFSET -2.625389 11.175210 0.000000
						CHANNELS 3 Zrotation Yrotation Xrotation
						JOINT RightArm
						{
							OFFSET -0.000000 10.434715 -0.000000
							CHANNELS 3 Zrotation Yrotation Xrotation
							JOINT RightForeArm
							{
								OFFSET -0.000000 29.628420 0.000000
								CHANNELS 3 Zrotation Yrotation Xrotation
								JOINT RightHand
								{
									OFFSET -0.000000 22.857611 0.000000
									CHANNELS 3 Zrotation Yrotation Xrotation
									JOINT RightHandThumb1
									{
										OFFSET -2.867323 3.959563 2.944291
										CHANNELS 3 Zrotation Yrotation Xrotation
										JOINT RightHandThumb2
										{
											OFFSET 0.000000 3.350399 0.000000
											CHANNELS 3 Zrotation Yrotation Xrotation
											JOINT RightHandThumb3
											{
												OFFSET 0.000000 3.756509 -0.000000
												CHANNELS 3 Zrotation Yrotation Xrotation
												JOINT RightHandThumb4
												{
													OFFSET 0.000000 3.147345 0.000000
													CHANNELS 3 Zrotation Yrotation Xrotation
													End Site
													{
														OFFSET 0.000000 0.000000 0.000000
													}
												}
											}
										}
									}
									JOINT RightHandIndex1
									{
										OFFSET -0.086752 10.030893 2.345280
										CHANNELS 3 Zrotation Yrotation Xrotation
										JOINT RightHandIndex2
										{
											OFFSET -0.000000 4.061090 0.000000
											CHANNELS 3 Zrotation Yrotation Xrotation
											JOINT RightHandIndex3
											{
												OFFSET -0.000000 3.248873 0.000000
												CHANNELS 3 Zrotation Yrotation Xrotation
												JOINT RightHandIndex4
												{
													OFFSET 0.000000 2.639709 -0.000000
													CHANNELS 3 Zrotation Yrotation Xrotation
													End Site
													{
														OFFSET 0.000000 0.000000 0.000000
													}
												}
											}
										}
									}
									JOINT RightHandMiddle1
									{
										OFFSET 0.104102 9.502952 0.006768
										CHANNELS 3 Zrotation Yrotation Xrotation
										JOINT RightHandMiddle2
										{
											OFFSET 0.000000 4.568727 0.000000
											CHANNELS 3 Zrotation Yrotation Xrotation
											JOINT RightHandMiddle3
											{
												OFFSET 0.000000 3.654981 -0.000000
												CHANNELS 3 Zrotation Yrotation Xrotation
												JOINT RightHandMiddle4
												{
													OFFSET -0.000000 2.741236 -0.000000
													CHANNELS 3 Zrotation Yrotation Xrotation
													End Site
													{
														OFFSET 0.000000 0.000000 0.000000
													}
												}
											}
										}
									}
									JOINT RightHandRing1
									{
										OFFSET 0.086752 8.921708 -2.267442
										CHANNELS 3 Zrotation Yrotation Xrotation
										JOINT RightHandRing2
										{
											OFFSET -0.000000 4.061090 0.000000
											CHANNELS 3 Zrotation Yrotation Xrotation
											JOINT RightHandRing3
											{
												OFFSET 0.000000 3.654981 -0.000000
												CHANNELS 3 Zrotation Yrotation Xrotation
												JOINT RightHandRing4
												{
													OFFSET 0.000000 2.741236 -0.000000
													CHANNELS 3 Zrotation Yrotation Xrotation
													End Site
													{
														OFFSET 0.000000 0.000000 0.000000
													}
												}
											}
										}
									}
									JOINT RightHandPinky1
									{
										OFFSET -0.173504 7.976997 -4.467199
										CHANNELS 3 Zrotation Yrotation Xrotation
										JOINT RightHandPinky2
										{
											OFFSET 0.000000 3.350399 -0.000000
											CHANNELS 3 Zrotation Yrotation Xrotation
											JOINT RightHandPinky3
											{
												OFFSET -0.000000 2.842763 0.000000
												CHANNELS 3 Zrotation Yrotation Xrotation
												JOINT RightHandPinky4
												{
													OFFSET -0.000000 2.639709 0.000000
													CHANNELS 3 Zrotation Yrotation Xrotation
													End Site
													{
														OFFSET 0.000000 0.000000 0.000000
													}
												}
											}
										}
									}
									JOINT RightForeArmEnd
									{
										OFFSET 0.000000 0.000000 0.000000
										CHANNELS 3 Zrotation Yrotation Xrotation
										End Site
										{
											OFFSET 0.000000 0.000000 0.000000
										}
									}
								}
								JOINT RightArmEnd
								{
									OFFSET 0.000000 0.000000 0.000000
									CHANNELS 3 Zrotation Yrotation Xrotation
									End Site
									{
										OFFSET 0.000000 0.000000 0.000000
									}
								}
							}
						}
					}
					JOINT LeftShoulder
					{
						OFFSET 2.625389 11.175210 0.000000
						CHANNELS 3 Zrotation Yrotation Xrotation
						JOINT LeftArm
						{
							OFFSET 0.000000 10.813635 -0.000000
							CHANNELS 3 Zrotation Yrotation Xrotation
							JOINT LeftForeArm
							{
								OFFSET 0.000000 28.724781 0.000000
								CHANNELS 3 Zrotation Yrotation Xrotation
								JOINT LeftHand
								{
									OFFSET 0.644384 25.716167 -0.328871
									CHANNELS 3 Zrotation Yrotation Xrotation
									JOINT LeftHandThumb1
									{
										OFFSET 2.867323 3.959563 2.944291
										CHANNELS 3 Zrotation Yrotation Xrotation
										JOINT LeftHandThumb2
										{
											OFFSET 0.000000 3.350399 0.000000
											CHANNELS 3 Zrotation Yrotation Xrotation
											JOINT LeftHandThumb3
											{
												OFFSET -0.000000 3.756509 0.000000
												CHANNELS 3 Zrotation Yrotation Xrotation
												JOINT LeftHandThumb4
												{
													OFFSET -0.000000 3.100000 0.000000
													CHANNELS 3 Zrotation Yrotation Xrotation
													End Site
													{
														OFFSET 0.000000 0.000000 0.000000
													}
												}
											}
										}
									}
									JOINT LeftHandIndex1
									{
										OFFSET 0.086752 10.030893 2.345280
										CHANNELS 3 Zrotation Yrotation Xrotation
										JOINT LeftHandIndex2
										{
											OFFSET -0.000000 4.061090 -0.000000
											CHANNELS 3 Zrotation Yrotation Xrotation
											JOINT LeftHandIndex3
											{
												OFFSET 0.000000 3.248873 -0.000000
												CHANNELS 3 Zrotation Yrotation Xrotation
												JOINT LeftHandIndex4
												{
													OFFSET 0.000000 2.639709 -0.000000
													CHANNELS 3 Zrotation Yrotation Xrotation
													End Site
													{
														OFFSET 0.000000 0.000000 0.000000
													}
												}
											}
										}
									}
									JOINT LeftHandMiddle1
									{
										OFFSET -0.104102 9.502952 0.006768
										CHANNELS 3 Zrotation Yrotation Xrotation
										JOINT LeftHandMiddle2
										{
											OFFSET -0.000000 4.568727 -0.000000
											CHANNELS 3 Zrotation Yrotation Xrotation
											JOINT LeftHandMiddle3
											{
												OFFSET 0.000000 3.654981 0.000000
												CHANNELS 3 Zrotation Yrotation Xrotation
												JOINT LeftHandMiddle4
												{
													OFFSET 0.000000 2.741236 -0.000000
													CHANNELS 3 Zrotation Yrotation Xrotation
													End Site
													{
														OFFSET 0.000000 0.000000 0.000000
													}
												}
											}
										}
									}
									JOINT LeftHandRing1
									{
										OFFSET -0.086752 8.921708 -2.267442
										CHANNELS 3 Zrotation Yrotation Xrotation
										JOINT LeftHandRing2
										{
											OFFSET 0.000000 4.061090 0.000000
											CHANNELS 3 Zrotation Yrotation Xrotation
											JOINT LeftHandRing3
											{
												OFFSET 0.000000 3.654981 0.000000
												CHANNELS 3 Zrotation Yrotation Xrotation
												JOINT LeftHandRing4
												{
													OFFSET 0.000000 2.741236 0.000000
													CHANNELS 3 Zrotation Yrotation Xrotation
													End Site
													{
														OFFSET 0.000000 0.000000 0.000000
													}
												}
											}
										}
									}
									JOINT LeftHandPinky1
									{
										OFFSET 0.173504 7.976997 -4.467199
										CHANNELS 3 Zrotation Yrotation Xrotation
										JOINT LeftHandPinky2
										{
											OFFSET -0.000000 3.350399 -0.000000
											CHANNELS 3 Zrotation Yrotation Xrotation
											JOINT LeftHandPinky3
											{
												OFFSET 0.000000 2.842763 0.000000
												CHANNELS 3 Zrotation Yrotation Xrotation
												JOINT LeftHandPinky4
												{
													OFFSET -0.000000 2.639709 -0.000000
													CHANNELS 3 Zrotation Yrotation Xrotation
													End Site
													{
														OFFSET 0.000000 0.000000 0.000000
													}
												}
											}
										}
									}
									JOINT LeftForeArmEnd
									{
										OFFSET 0.000000 0.000000 0.000000
										CHANNELS 3 Zrotation Yrotation Xrotation
										End Site
										{
											OFFSET 0.000000 0.000000 0.000000
										}
									}
								}
								JOINT LeftArmEnd
								{
									OFFSET 0.000000 0.000000 0.000000
									CHANNELS 3 Zrotation Yrotation Xrotation
									End Site
									{
										OFFSET 0.000000 0.000000 0.000000
									}
								}
							}
						}
					}
				}
			}
		}
	}
	JOINT RightUpLeg
	{
		OFFSET -11.289943 0.000000 0.000000
		CHANNELS 3 Zrotation Yrotation Xrotation
		JOINT RightLeg
		{
			OFFSET 0.000000 -38.200325 0.000000
			CHANNELS 3 Zrotation Yrotation Xrotation
			JOINT RightFoot
			{
				OFFSET -0.000000 -39.900856 -0.000000
				CHANNELS 3 Zrotation Yrotation Xrotation
				JOINT RightToeBase
				{
					OFFSET 0.000000 0.000000 15.261641
					CHANNELS 3 Zrotation Yrotation Xrotation
					JOINT RightToeBaseEnd
					{
						OFFSET 0.000000 0.000000 7.370709
						CHANNELS 3 Zrotation Yrotation Xrotation
						End Site
						{
							OFFSET 0.000000 0.000000 0.000000
						}
					}
				}
				JOINT RightLegEnd
				{
					OFFSET 0.000000 0.000000 0.000000
					CHANNELS 3 Zrotation Yrotation Xrotation
					End Site
					{
						OFFSET 0.000000 0.000000 0.000000
					}
				}
			}
			JOINT RightUpLegEnd
			{
				OFFSET 0.000000 0.000000 0.000000
				CHANNELS 3 Zrotation Yrotation Xrotation
				End Site
				{
					OFFSET 0.000000 0.000000 0.000000
				}
			}
		}
	}
	JOINT LeftUpLeg
	{
		OFFSET 11.315661 -0.000000 0.000000
		CHANNELS 3 Zrotation Yrotation Xrotation
		JOINT LeftLeg
		{
			OFFSET -0.000000 -38.200325 -0.000000
			CHANNELS 3 Zrotation Yrotation Xrotation
			JOINT LeftFoot
			{
				OFFSET 0.000000 -39.900856 -0.000000
				CHANNELS 3 Zrotation Yrotation Xrotation
				JOINT LeftToeBase
				{
					OFFSET -0.000000 -0.000000 15.261641
					CHANNELS 3 Zrotation Yrotation Xrotation
					JOINT LeftToeBaseEnd
					{
						OFFSET 0.000000 -0.000000 7.539996
						CHANNELS 3 Zrotation Yrotation Xrotation
						End Site
						{
							OFFSET 0.000000 0.000000 0.000000
						}
					}
				}
				JOINT LeftLegEnd
				{
					OFFSET 0.000000 0.000000 0.000000
					CHANNELS 3 Zrotation Yrotation Xrotation
					End Site
					{
						OFFSET 0.000000 0.000000 0.000000
					}
				}
			}
			JOINT LeftUpLegEnd
			{
				OFFSET 0.000000 0.000000 0.000000
				CHANNELS 3 Zrotation Yrotation Xrotation
				End Site
				{
					OFFSET 0.000000 0.000000 0.000000
				}
			}
		}
	}
}
MOTION
Frames: 4
Frame Time: 0.016667
0.551481 88.882492 2.995207 -0.231281 -2.267055 -9.715558 0.952553 0.146765 6.977674 -0.912597 0.232372 2.233069 0.393271 -1.072595 3.916280 -0.937616 0.017495 3.504992 0.501346 1.556087 2.886809 0.256891 1.612342 -4.029244 -0.721290 -0.942328 -19.037357 0.000000 0.000000 0.000000 92.755310 -0.371528 10.253852 66.743355 -27.117538 3.776871 -0.152149 16.766411 32.855148 4.548813 8.597548 -4.820363 19.906801 30.082911 62.000206 -8.482199 -12.240573 -20.665436 -6.325097 -8.104686 -14.336192 0.000000 0.000000 0.000000 13.183907 -10.937267 0.764531 9.800035 0.346563 1.250828 9.535634 -0.080900 1.233174 0.000000 0.000000 0.000000 12.069882 -5.488117 -0.452753 8.331288 0.436987 0.515152 8.932126 -0.051970 0.439325 0.000000 0.000000 0.000000 11.597319 2.396937 -0.846351 8.535157 -0.909320 -0.781425 8.545344 0.050063 -0.559244 0.000000 0.000000 0.000000 9.765310 10.976022 -2.197914 7.603880 -1.690011 -2.290222 7.461674 0.229971 -1.959958 0.000000 0.000000 0.000000 0.000000 0.000000 0.000000 0.000000 0.000000 0.000000 -89.115662 0.076022 5.759363 -72.969101 15.163557 -7.233960 -1.053172 -12.550891 54.416492 -2.496239 -15.985862 -11.944089 -19.584425 -30.178028 62.180298 8.284127 11.694291 -19.885178 6.134404 7.892954 -13.950753 0.000000 0.000000 0.000000 -14.615077 -6.082766 2.916199 -9.188114 0.370552 -1.112860 -9.059972 -0.081786 -1.056062 0.000000 0.000000 0.000000 -13.896217 -1.042849 0.729764 -9.072095 0.437621 -0.493878 -9.030459 -0.051206 -0.407988 0.000000 0.000000 0.000000 -16.319506 7.023495 -1.596281 -10.585742 -0.915832 0.782180 -10.655495 0.052733 0.606410 0.000000 0.000000 0.000000 -18.402348 15.625971 -4.561059 -11.650457 -1.692214 2.498770 -11.415451 0.280363 2.209271 0.000000 0.000000 0.000000 0.000000 0.000000 0.000000 0.000000 0.000000 0.000000 -0.783180 -8.455853 13.548257 -0.068690 -0.695799 5.144849 -2.418594 -7.172590 17.912365 -0.839494 0.822599 -18.559130 0.000000 0.000000 0.000000 0.000000 0.000000 0.000000 0.000000 0.000000 0.000000 -1.706276 -5.219631 8.865436 0.063555 0.325693 9.518347 4.211015 0.315604 17.102669 0.371473 -0.400486 -20.960360 0.000000 0.000000 0.000000 0.000000 0.000000 0.000000 0.000000 0.000000 0.000000 
0.547731 88.883125 3.011549 -0.233868 -2.274314 -9.738595 0.970522 0.142615 6.965208 -0.929953 0.235043 2.236611 0.387562 -1.075777 3.933813 -0.947546 0.012367 3.502610 0.488975 1.577096 2.856000 0.260536 1.621493 -4.038272 -0.725047 -0.947201 -19.049639 0.000000 0.000000 0.000000 92.660561 -0.343127 10.244360 66.831207 -27.110836 3.679153 -0.174469 16.807335 33.645870 4.627294 8.355812 -4.770238 19.906300 30.083525 62.000301 -8.482673 -12.239322 -20.666336 -6.323377 -8.102771 -14.335263 0.000000 0.000000 0.000000 13.189147 -10.942700 0.819523 9.857159 0.330076 1.312541 9.593066 -0.096602 1.288169 0.000000 0.000000 0.000000 12.084161 -5.491494 -0.427946 8.384190 0.430790 0.538584 8.994745 -0.057145 0.458611 0.000000 0.000000 0.000000 11.661040 2.388339 -0.880948 8.600083 -0.900049 -0.812982 8.623367 0.057488 -0.582252 0.000000 0.000000 0.000000 9.881190 10.968183 -2.279576 7.685506 -1.663610 -2.370033 7.551029 0.254026 -2.026647 0.000000 0.000000 0.000000 0.000000 0.000000 0.000000 0.000000 0.000000 0.000000 -89.017471 0.065994 5.748736 -73.070480 15.121997 -7.351650 -1.037767 -12.744926 55.038296 -2.507066 -15.650481 -11.819564 -19.587835 -30.177925 62.176170 8.285006 11.699656 -19.896402 6.138059 7.901968 -13.954247 0.000000 0.000000 0.000000 -14.613216 -6.080991 2.980193 -9.211141 0.360858 -1.132233 -9.077990 -0.091652 -1.072364 0.000000 0.000000 0.000000 -13.892467 -1.041195 0.753098 -9.119156 0.433665 -0.503085 -9.072590 -0.054805 -0.414590 0.000000 0.000000 0.000000 -16.402405 7.038368 -1.625513 -10.681580 -0.908571 0.797711 -10.758995 0.058244 0.616902 0.000000 0.000000 0.000000 -18.556755 15.651135 -4.658810 -11.783684 -1.670194 2.550637 -11.542781 0.299790 2.250358 0.000000 0.000000 0.000000 0.000000 0.000000 0.000000 0.000000 0.000000 0.000000 -0.801901 -8.464923 13.556377 -0.067872 -0.692419 5.169715 -2.407588 -7.152690 17.924326 -0.839083 0.821670 -18.568493 0.000000 0.000000 0.000000 0.000000 0.000000 0.000000 0.000000 0.000000 0.000000 -1.694046 -5.208361 8.877397 0.063882 0.324554 9.547857 4.200265 0.290800 17.115322 0.371420 -0.400968 -20.984142 0.000000 0.000000 0.000000 0.000000 0.000000 0.000000 0.000000 0.000000 0.000000 
0.545007 88.883987 3.027623 -0.240178 -2.276411 -9.759742 0.990215 0.137000 6.951272 -0.948086 0.236280 2.231108 0.385480 -1.078761 3.957016 -0.958494 0.009128 3.503687 0.479267 1.595434 2.830143 0.267182 1.630681 -4.042713 -0.727317 -0.951570 -19.067280 0.000000 0.000000 0.000000 92.567337 -0.317824 10.218170 66.913765 -27.091969 3.527821 -0.196234 16.888195 34.639133 4.678524 8.108397 -4.711023 19.904911 30.085123 62.001129 -8.481202 -12.236215 -20.663494 -6.320745 -8.099124 -14.331781 0.000000 0.000000 0.000000 13.164921 -10.944775 0.917794 9.901483 0.312669 1.377669 9.636599 -0.113229 1.346064 0.000000 0.000000 0.000000 12.082264 -5.492110 -0.368513 8.429645 0.424354 0.562799 9.050561 -0.062474 0.478512 0.000000 0.000000 0.000000 11.721179 2.380647 -0.902412 8.661636 -0.890275 -0.844866 8.698997 0.065172 -0.605510 0.000000 0.000000 0.000000 10.001315 10.960748 -2.361548 7.772067 -1.635948 -2.449685 7.647323 0.278982 -2.092429 0.000000 0.000000 0.000000 0.000000 0.000000 0.000000 0.000000 0.000000 0.000000 -88.919823 0.058646 5.714492 -73.170700 15.094294 -7.476329 -1.016971 -12.943132 55.731750 -2.523469 -15.311391 -11.688365 -19.583233 -30.181198 62.181267 8.275995 11.688608 -19.881487 6.133947 7.899251 -13.940108 0.000000 0.000000 0.000000 -14.555926 -6.091252 3.116702 -9.204923 0.351825 -1.146635 -9.067559 -0.101076 -1.084082 0.000000 0.000000 0.000000 -13.826953 -1.050616 0.832055 -9.133046 0.430178 -0.510170 -9.085922 -0.057959 -0.419416 0.000000 0.000000 0.000000 -16.405628 7.039626 -1.616734 -10.736811 -0.901916 0.809862 -10.819908 0.063120 0.625004 0.000000 0.000000 0.000000 -18.634727 15.661452 -4.737286 -11.872981 -1.650474 2.593555 -11.622529 0.317434 2.283791 0.000000 0.000000 0.000000 0.000000 0.000000 0.000000 0.000000 0.000000 0.000000 -0.821476 -8.483135 13.562139 -0.067089 -0.688934 5.194434 -2.393431 -7.129239 17.943857 -0.837848 0.821045 -18.581911 0.000000 0.000000 0.000000 0.000000 0.000000 0.000000 0.000000 0.000000 0.000000 -1.676700 -5.198310 8.889044 0.064209 0.323532 9.573821 4.190339 0.263775 17.132591 0.371182 -0.401064 -21.010664 0.000000 0.000000 0.000000 0.000000 0.000000 0.000000 0.000000 0.000000 0.000000 
0.544420 88.885010 3.042888 -0.247504 -2.273993 -9.778261 1.007792 0.131204 6.936924 -0.961624 0.235049 2.218355 0.380996 -1.074632 3.983814 -0.971464 0.009034 3.508916 0.478245 1.605289 2.813091 0.276283 1.633980 -4.042969 -0.725206 -0.954599 -19.093750 0.000000 0.000000 0.000000 92.480598 -0.297801 10.181657 66.989182 -27.054756 3.326816 -0.215280 17.002291 35.796940 4.685515 7.876799 -4.656371 19.903419 30.086914 62.000813 -8.479826 -12.233719 -20.660786 -6.318816 -8.095258 -14.328158 0.000000 0.000000 0.000000 13.119407 -10.943724 1.047282 9.928788 0.297264 1.434963 9.662761 -0.127922 1.397078 0.000000 0.000000 0.000000 12.070537 -5.490786 -0.280219 8.462950 0.418812 0.583637 9.093943 -0.067064 0.495569 0.000000 0.000000 0.000000 11.773962 2.374073 -0.903121 8.712114 -0.881693 -0.871608 8.763509 0.071796 -0.625141 0.000000 0.000000 0.000000 10.111057 10.954447 -2.427105 7.851928 -1.611859 -2.514728 7.738279 0.300554 -2.145516 0.000000 0.000000 0.000000 0.000000 0.000000 0.000000 0.000000 0.000000 0.000000 -88.828850 0.055780 5.658201 -73.258553 15.065638 -7.608959 -0.990226 -13.119122 56.498566 -2.545953 -14.975248 -11.568891 -19.570734 -30.187511 62.195065 8.257781 11.662170 -19.841288 6.122470 7.884878 -13.909114 0.000000 0.000000 0.000000 -14.453393 -6.111243 3.306333 -9.171760 0.345807 -1.150677 -9.031570 -0.107757 -1.086800 0.000000 0.000000 0.000000 -13.707407 -1.069665 0.955510 -9.113633 0.428136 -0.512919 -9.070619 -0.059876 -0.420682 0.000000 0.000000 0.000000 -16.328033 7.027559 -1.574808 -10.744870 -0.897393 0.815114 -10.831212 0.066258 0.628266 0.000000 0.000000 0.000000 -18.624834 15.656946 -4.791842 -11.905692 -1.637400 2.616934 -11.643057 0.329733 2.301386 0.000000 0.000000 0.000000 0.000000 0.000000 0.000000 0.000000 0.000000 0.000000 -0.845817 -8.506932 13.566934 -0.066560 -0.685870 5.217496 -2.374171 -7.103079 17.971121 -0.836518 0.820737 -18.599840 0.000000 0.000000 0.000000 0.000000 0.000000 0.000000 0.000000 0.000000 0.000000 -1.660300 -5.189977 8.898809 0.064419 0.322692 9.599603 4.182071 0.236684 17.152338 0.370362 -0.400897 -21.038769 0.000000 0.000000 0.000000 0.000000 0.000000 0.000000 0.000000 0.000000 0.000000 
